<svg xmlns="http://www.w3.org/2000/svg" width="30" height="30" viewBox="0 0 30 30">
  <metadata><?xpacket begin="﻿" id="W5M0MpCehiHzreSzNTczkc9d"?>
<x:xmpmeta xmlns:x="adobe:ns:meta/" x:xmptk="Adobe XMP Core 5.6-c138 79.159824, 2016/09/14-01:09:01        ">
   <rdf:RDF xmlns:rdf="http://www.w3.org/1999/02/22-rdf-syntax-ns#">
      <rdf:Description rdf:about=""/>
   </rdf:RDF>
</x:xmpmeta>
                                                                                                    
                                                                                                    
                                                                                                    
                                                                                                    
                                                                                                    
                                                                                                    
                                                                                                    
                                                                                                    
                                                                                                    
                                                                                                    
                                                                                                    
                                                                                                    
                                                                                                    
                                                                                                    
                                                                                                    
                                                                                                    
                                                                                                    
                                                                                                    
                                                                                                    
                                                                                                    
                           
<?xpacket end="w"?></metadata>
<defs>
    <style>
      .cls-1 {
        fill: #95e1d3;
        fill-rule: evenodd;
      }
    </style>
  </defs>
  <path id="PICTURE" class="cls-1" d="M1029,3908a1.505,1.505,0,0,1-1,1.41v1.68a1.5,1.5,0,1,1-1.91,1.91h-1.68a1.494,1.494,0,0,1-2.82,0h-1.68a1.494,1.494,0,0,1-2.82,0h-1.68a1.494,1.494,0,0,1-2.82,0h-1.68a1.494,1.494,0,0,1-2.82,0h-1.68a1.494,1.494,0,0,1-2.82,0h-1.68a1.5,1.5,0,1,1-1.91-1.91v-1.68a1.494,1.494,0,0,1,0-2.82v-1.68a1.494,1.494,0,0,1,0-2.82v-1.68a1.494,1.494,0,0,1,0-2.82v-1.68a1.494,1.494,0,0,1,0-2.82v-1.68a1.494,1.494,0,0,1,0-2.82v-1.68a1.5,1.5,0,1,1,1.91-1.91h1.68a1.494,1.494,0,0,1,2.82,0h1.68a1.494,1.494,0,0,1,2.82,0h1.68a1.494,1.494,0,0,1,2.82,0h1.68a1.494,1.494,0,0,1,2.82,0h1.68a1.494,1.494,0,0,1,2.82,0h1.68a1.5,1.5,0,1,1,1.91,1.91v1.68a1.494,1.494,0,0,1,0,2.82v1.68a1.494,1.494,0,0,1,0,2.82v1.68a1.494,1.494,0,0,1,0,2.82v1.68a1.494,1.494,0,0,1,0,2.82v1.68A1.505,1.505,0,0,1,1029,3908Zm-4-20h-22v22h22v-22Zm-13,16,7-8.5,4.5,7v6h-19l6-6Zm-3-7a3,3,0,1,1,3-3A3,3,0,0,1,1009,3897Z" transform="translate(-999 -3884)"/>
</svg>
